<mxfile host="Electron" modified="2024-07-26T22:01:39.508Z" agent="Mozilla/5.0 (Windows NT 10.0; Win64; x64) AppleWebKit/537.36 (KHTML, like Gecko) draw.io/24.5.3 Chrome/124.0.6367.207 Electron/30.0.6 Safari/537.36" etag="yh4UQpY5joE8ZBdndSqT" version="24.5.3" type="device">
  <diagram id="prtHgNgQTEPvFCAcTncT" name="Page-1">
    <mxGraphModel dx="1098" dy="828" grid="1" gridSize="10" guides="1" tooltips="1" connect="1" arrows="1" fold="1" page="1" pageScale="1" pageWidth="827" pageHeight="1169" math="0" shadow="0">
      <root>
        <mxCell id="0" />
        <mxCell id="1" parent="0" />
        <mxCell id="aTURooDjBuoHIjvPpmW2-4" value="Executar tarefa" style="shape=umlFrame;whiteSpace=wrap;html=1;pointerEvents=0;recursiveResize=0;container=1;collapsible=0;width=160;" vertex="1" parent="1">
          <mxGeometry x="20" y="40" width="530" height="560" as="geometry" />
        </mxCell>
        <mxCell id="aTURooDjBuoHIjvPpmW2-31" value="usuário" style="swimlane;whiteSpace=wrap;html=1;" vertex="1" parent="aTURooDjBuoHIjvPpmW2-4">
          <mxGeometry x="60" y="40" width="200" height="470" as="geometry" />
        </mxCell>
        <mxCell id="aTURooDjBuoHIjvPpmW2-142" value="" style="edgeStyle=orthogonalEdgeStyle;rounded=0;orthogonalLoop=1;jettySize=auto;html=1;" edge="1" parent="aTURooDjBuoHIjvPpmW2-31" source="aTURooDjBuoHIjvPpmW2-33" target="aTURooDjBuoHIjvPpmW2-141">
          <mxGeometry relative="1" as="geometry" />
        </mxCell>
        <mxCell id="aTURooDjBuoHIjvPpmW2-33" value="" style="ellipse;fillColor=strokeColor;html=1;" vertex="1" parent="aTURooDjBuoHIjvPpmW2-31">
          <mxGeometry x="85" y="30" width="30" height="30" as="geometry" />
        </mxCell>
        <mxCell id="aTURooDjBuoHIjvPpmW2-144" value="" style="edgeStyle=orthogonalEdgeStyle;rounded=0;orthogonalLoop=1;jettySize=auto;html=1;" edge="1" parent="aTURooDjBuoHIjvPpmW2-31" source="aTURooDjBuoHIjvPpmW2-141" target="aTURooDjBuoHIjvPpmW2-143">
          <mxGeometry relative="1" as="geometry" />
        </mxCell>
        <mxCell id="aTURooDjBuoHIjvPpmW2-141" value="requisita página de estatística" style="html=1;align=center;verticalAlign=top;rounded=1;absoluteArcSize=1;arcSize=10;dashed=0;whiteSpace=wrap;" vertex="1" parent="aTURooDjBuoHIjvPpmW2-31">
          <mxGeometry x="30" y="100" width="140" height="40" as="geometry" />
        </mxCell>
        <mxCell id="aTURooDjBuoHIjvPpmW2-146" value="" style="edgeStyle=orthogonalEdgeStyle;rounded=0;orthogonalLoop=1;jettySize=auto;html=1;" edge="1" parent="aTURooDjBuoHIjvPpmW2-31" source="aTURooDjBuoHIjvPpmW2-143" target="aTURooDjBuoHIjvPpmW2-145">
          <mxGeometry relative="1" as="geometry" />
        </mxCell>
        <mxCell id="aTURooDjBuoHIjvPpmW2-143" value="digitar nome da tarefa" style="html=1;align=center;verticalAlign=top;rounded=1;absoluteArcSize=1;arcSize=10;dashed=0;whiteSpace=wrap;" vertex="1" parent="aTURooDjBuoHIjvPpmW2-31">
          <mxGeometry x="30" y="170" width="140" height="30" as="geometry" />
        </mxCell>
        <mxCell id="aTURooDjBuoHIjvPpmW2-145" value="clicar no botão pesquisa" style="html=1;align=center;verticalAlign=top;rounded=1;absoluteArcSize=1;arcSize=10;dashed=0;whiteSpace=wrap;" vertex="1" parent="aTURooDjBuoHIjvPpmW2-31">
          <mxGeometry x="30" y="240" width="140" height="30" as="geometry" />
        </mxCell>
        <mxCell id="aTURooDjBuoHIjvPpmW2-63" value="aplicação" style="swimlane;whiteSpace=wrap;html=1;" vertex="1" parent="aTURooDjBuoHIjvPpmW2-4">
          <mxGeometry x="260" y="40" width="220" height="470" as="geometry" />
        </mxCell>
        <mxCell id="aTURooDjBuoHIjvPpmW2-150" value="" style="edgeStyle=orthogonalEdgeStyle;rounded=0;orthogonalLoop=1;jettySize=auto;html=1;" edge="1" parent="aTURooDjBuoHIjvPpmW2-63" source="aTURooDjBuoHIjvPpmW2-147" target="aTURooDjBuoHIjvPpmW2-149">
          <mxGeometry relative="1" as="geometry" />
        </mxCell>
        <mxCell id="aTURooDjBuoHIjvPpmW2-147" value="buscar atividade" style="html=1;align=center;verticalAlign=top;rounded=1;absoluteArcSize=1;arcSize=10;dashed=0;whiteSpace=wrap;" vertex="1" parent="aTURooDjBuoHIjvPpmW2-63">
          <mxGeometry x="50" y="240" width="140" height="30" as="geometry" />
        </mxCell>
        <mxCell id="aTURooDjBuoHIjvPpmW2-152" value="" style="edgeStyle=orthogonalEdgeStyle;rounded=0;orthogonalLoop=1;jettySize=auto;html=1;" edge="1" parent="aTURooDjBuoHIjvPpmW2-63" source="aTURooDjBuoHIjvPpmW2-149" target="aTURooDjBuoHIjvPpmW2-151">
          <mxGeometry relative="1" as="geometry" />
        </mxCell>
        <mxCell id="aTURooDjBuoHIjvPpmW2-149" value="exibir atividade" style="html=1;align=center;verticalAlign=top;rounded=1;absoluteArcSize=1;arcSize=10;dashed=0;whiteSpace=wrap;" vertex="1" parent="aTURooDjBuoHIjvPpmW2-63">
          <mxGeometry x="50" y="320" width="140" height="30" as="geometry" />
        </mxCell>
        <mxCell id="aTURooDjBuoHIjvPpmW2-151" value="" style="ellipse;html=1;shape=endState;fillColor=strokeColor;" vertex="1" parent="aTURooDjBuoHIjvPpmW2-63">
          <mxGeometry x="105" y="400" width="30" height="30" as="geometry" />
        </mxCell>
        <mxCell id="aTURooDjBuoHIjvPpmW2-148" value="" style="edgeStyle=orthogonalEdgeStyle;rounded=0;orthogonalLoop=1;jettySize=auto;html=1;" edge="1" parent="aTURooDjBuoHIjvPpmW2-4" source="aTURooDjBuoHIjvPpmW2-145" target="aTURooDjBuoHIjvPpmW2-147">
          <mxGeometry relative="1" as="geometry" />
        </mxCell>
      </root>
    </mxGraphModel>
  </diagram>
</mxfile>
